<svg width="37" height="37" viewBox="0 0 37 37" fill="none" xmlns="http://www.w3.org/2000/svg">
<path fill-rule="evenodd" clip-rule="evenodd" d="M11.2035 1.06578C13.1332 0.97925 13.7485 0.960022 18.664 0.960022C23.5795 0.960022 24.1948 0.980853 26.1228 1.06578C28.0509 1.1507 29.367 1.45034 30.5185 1.88458C31.7244 2.32844 32.8184 3.02226 33.7232 3.91958C34.6444 4.79928 35.3551 5.86325 35.8091 7.03938C36.2566 8.16103 36.5626 9.44292 36.6514 11.3177C36.7402 13.2005 36.76 13.7997 36.76 18.586C36.76 23.3738 36.7386 23.9731 36.6514 25.8527C36.5642 27.7275 36.2566 29.0094 35.8091 30.131C35.3551 31.3073 34.6432 32.373 33.7232 33.254C32.8184 34.1513 31.7244 34.8436 30.5185 35.2858C29.367 35.7216 28.0509 36.0197 26.1261 36.1062C24.1948 36.1927 23.5795 36.212 18.664 36.212C13.7485 36.212 13.1332 36.1911 11.2035 36.1062C9.27875 36.0213 7.96268 35.7216 6.81111 35.2858C5.60349 34.8435 4.50934 34.1501 3.60483 33.254C2.68421 32.3738 1.97177 31.3086 1.51721 30.1326C1.07139 29.011 0.765404 27.7291 0.676569 25.8543C0.587734 23.9715 0.567993 23.3722 0.567993 18.586C0.567993 13.7981 0.589379 13.1989 0.676569 11.3209C0.763759 9.44292 1.07139 8.16103 1.51721 7.03938C1.97244 5.86338 2.68542 4.79818 3.60648 3.91798C4.5097 3.02146 5.60275 2.32755 6.80947 1.88458C7.96103 1.45034 9.2771 1.15231 11.2019 1.06578H11.2035ZM25.9764 4.23845C24.0681 4.15353 23.4956 4.1359 18.664 4.1359C13.8324 4.1359 13.2599 4.15353 11.3516 4.23845C9.58638 4.31697 8.62894 4.60379 7.99064 4.84575C7.14671 5.16622 6.54296 5.54598 5.9096 6.16289C5.30922 6.73181 4.84717 7.4244 4.55734 8.18988C4.30893 8.81159 4.01446 9.74417 3.93385 11.4635C3.84666 13.3222 3.82856 13.8799 3.82856 18.586C3.82856 23.2921 3.84666 23.8498 3.93385 25.7085C4.01446 27.4278 4.30893 28.3604 4.55734 28.9821C4.84687 29.7464 5.30915 30.4403 5.9096 31.0091C6.49361 31.594 7.20593 32.0442 7.99064 32.3262C8.62894 32.5682 9.58638 32.855 11.3516 32.9335C13.2599 33.0185 13.8307 33.0361 18.664 33.0361C23.4973 33.0361 24.0681 33.0185 25.9764 32.9335C27.7416 32.855 28.699 32.5682 29.3373 32.3262C30.1813 32.0058 30.785 31.626 31.4184 31.0091C32.0188 30.4403 32.4811 29.7464 32.7706 28.9821C33.0191 28.3604 33.3135 27.4278 33.3941 25.7085C33.4813 23.8498 33.4994 23.2921 33.4994 18.586C33.4994 13.8799 33.4813 13.3222 33.3941 11.4635C33.3135 9.74417 33.0191 8.81159 32.7706 8.18988C32.4416 7.36786 32.0517 6.7798 31.4184 6.16289C30.8343 5.57814 30.1232 5.1281 29.3373 4.84575C28.699 4.60379 27.7416 4.31697 25.9764 4.23845ZM16.3526 24.0196C17.6435 24.543 19.0808 24.6136 20.4192 24.2194C21.7576 23.8253 22.9139 22.9908 23.6907 21.8584C24.4676 20.7261 24.8167 19.3661 24.6785 18.0109C24.5403 16.6557 23.9234 15.3892 22.933 14.4279C22.3017 13.8133 21.5383 13.3428 20.6979 13.0501C19.8574 12.7574 18.9608 12.6498 18.0726 12.7352C17.1843 12.8205 16.3266 13.0966 15.561 13.5436C14.7955 13.9906 14.1412 14.5973 13.6453 15.3201C13.1494 16.043 12.8242 16.8639 12.6932 17.7239C12.5621 18.5838 12.6284 19.4614 12.8873 20.2933C13.1462 21.1253 13.5913 21.891 14.1905 22.5354C14.7897 23.1797 15.5282 23.6866 16.3526 24.0196ZM12.0869 12.1798C12.9506 11.3385 13.976 10.6711 15.1045 10.2158C16.233 9.76054 17.4425 9.5262 18.664 9.5262C19.8855 9.5262 21.095 9.76054 22.2235 10.2158C23.352 10.6711 24.3774 11.3385 25.2411 12.1798C26.1048 13.021 26.7899 14.0198 27.2574 15.119C27.7248 16.2181 27.9654 17.3962 27.9654 18.586C27.9654 19.7757 27.7248 20.9538 27.2574 22.053C26.7899 23.1522 26.1048 24.151 25.2411 24.9922C23.4967 26.6913 21.1309 27.6458 18.664 27.6458C16.1971 27.6458 13.8313 26.6913 12.0869 24.9922C10.3426 23.2932 9.36261 20.9888 9.36261 18.586C9.36261 16.1832 10.3426 13.8788 12.0869 12.1798ZM30.0283 10.8754C30.2423 10.6788 30.4137 10.4423 30.5322 10.18C30.6507 9.91765 30.714 9.63484 30.7183 9.34827C30.7225 9.06171 30.6678 8.77722 30.5571 8.51165C30.4465 8.24607 30.2823 8.00482 30.0743 7.80217C29.8662 7.59951 29.6185 7.43958 29.3459 7.33184C29.0732 7.2241 28.7811 7.17074 28.4869 7.17491C28.1927 7.17909 27.9024 7.24072 27.6331 7.35616C27.3638 7.4716 27.121 7.6385 26.9191 7.84697C26.5264 8.25241 26.3114 8.79096 26.3198 9.34827C26.3281 9.90559 26.5591 10.4378 26.9637 10.8319C27.3684 11.226 27.9148 11.451 28.4869 11.4592C29.0591 11.4673 29.612 11.2579 30.0283 10.8754Z" fill="#20222D"/>
</svg>
