<svg width="30" height="31" viewBox="0 0 30 31" fill="none" xmlns="http://www.w3.org/2000/svg">
<g clip-path="url(#clip0_15_6077)" filter="url(#filter0_i_15_6077)">
<path d="M15.6502 0.76927C17.2822 0.744019 18.9049 0.758983 20.5256 0.744019C20.6238 2.65286 21.3103 4.59725 22.7076 5.94681C24.102 7.33005 26.0745 7.96321 27.9936 8.17739V13.1987C26.1951 13.1398 24.3882 12.7657 22.7562 11.9913C22.0454 11.6696 21.3833 11.2553 20.7351 10.8316C20.7267 14.4754 20.7501 18.1144 20.7118 21.7432C20.6145 23.4865 20.0393 25.2214 19.0255 26.6579C17.3944 29.0494 14.5634 30.6084 11.6557 30.6571C9.87222 30.759 8.09056 30.2727 6.57078 29.3767C4.05215 27.8915 2.27986 25.1727 2.02173 22.2548C1.98921 21.6368 1.98422 21.0177 2.00676 20.3992C2.23122 18.0265 3.40496 15.7567 5.22683 14.2126C7.29186 12.4141 10.1846 11.5574 12.8931 12.0643C12.9183 13.9114 12.8444 15.7567 12.8444 17.6038C11.6071 17.2035 10.1612 17.3157 9.08006 18.0667C8.28906 18.5878 7.69131 19.3545 7.37884 20.2487C7.12071 20.8809 7.19459 21.5833 7.20956 22.2548C7.50603 24.3011 9.4738 26.021 11.5744 25.8349C12.967 25.8199 14.3016 25.0119 15.0273 23.8288C15.2621 23.4145 15.5249 22.9908 15.5389 22.5035C15.6614 20.273 15.6128 18.0518 15.6277 15.8212C15.638 10.7942 15.6128 5.78127 15.6511 0.770206L15.6502 0.76927Z" fill="#20222D"/>
</g>
<defs>
<filter id="filter0_i_15_6077" x="0.0239868" y="0.744019" width="29.928" height="33.928" filterUnits="userSpaceOnUse" color-interpolation-filters="sRGB">
<feFlood flood-opacity="0" result="BackgroundImageFix"/>
<feBlend mode="normal" in="SourceGraphic" in2="BackgroundImageFix" result="shape"/>
<feColorMatrix in="SourceAlpha" type="matrix" values="0 0 0 0 0 0 0 0 0 0 0 0 0 0 0 0 0 0 127 0" result="hardAlpha"/>
<feOffset dy="4"/>
<feGaussianBlur stdDeviation="7.5"/>
<feComposite in2="hardAlpha" operator="arithmetic" k2="-1" k3="1"/>
<feColorMatrix type="matrix" values="0 0 0 0 0 0 0 0 0 0 0 0 0 0 0 0 0 0 0.2 0"/>
<feBlend mode="normal" in2="shape" result="effect1_innerShadow_15_6077"/>
</filter>
<clipPath id="clip0_15_6077">
<rect width="29.928" height="29.928" fill="white" transform="translate(0.0239868 0.744019)"/>
</clipPath>
</defs>
</svg>
