<svg width="35" height="36" viewBox="0 0 35 36" fill="none" xmlns="http://www.w3.org/2000/svg">
<g clip-path="url(#clip0_15_6074)" filter="url(#filter0_i_15_6074)">
<path d="M32.5612 8.24735C31.3747 8.77312 30.1001 9.12837 28.7601 9.28895C30.1427 8.46163 31.1771 7.15953 31.6703 5.62561C30.3713 6.3972 28.9496 6.94031 27.467 7.23134C26.47 6.16682 25.1494 5.46124 23.7103 5.22414C22.2712 4.98704 20.7941 5.23169 19.5083 5.92011C18.2225 6.60853 17.1999 7.7022 16.5994 9.03132C15.9988 10.3604 15.8539 11.8507 16.1871 13.2706C13.5549 13.1384 10.98 12.4543 8.62937 11.2626C6.27874 10.0709 4.20497 8.39821 2.54262 6.35316C1.97422 7.33365 1.64739 8.47045 1.64739 9.68114C1.64676 10.771 1.91515 11.8442 2.42877 12.8055C2.94238 13.7668 3.68533 14.5865 4.5917 15.1918C3.54056 15.1583 2.5126 14.8743 1.59339 14.3633V14.4486C1.59329 15.9772 2.12205 17.4588 3.08997 18.642C4.05788 19.8251 5.40533 20.637 6.90367 20.9397C5.92856 21.2036 4.90622 21.2425 3.91389 21.0534C4.33663 22.3687 5.1601 23.5189 6.26901 24.3429C7.37791 25.167 8.71675 25.6236 10.0981 25.6489C7.75319 27.4897 4.85727 28.4882 1.87617 28.4838C1.3481 28.484 0.820478 28.4531 0.296021 28.3915C3.32201 30.337 6.84447 31.3696 10.442 31.3656C22.6199 31.3656 29.2773 21.2793 29.2773 12.5317C29.2773 12.2475 29.2702 11.9604 29.2574 11.6762C30.5524 10.7398 31.6702 9.5801 32.5584 8.25162L32.5612 8.24735Z" fill="#20222D"/>
</g>
<defs>
<filter id="filter0_i_15_6074" x="0.296021" y="0.960022" width="34.104" height="38.104" filterUnits="userSpaceOnUse" color-interpolation-filters="sRGB">
<feFlood flood-opacity="0" result="BackgroundImageFix"/>
<feBlend mode="normal" in="SourceGraphic" in2="BackgroundImageFix" result="shape"/>
<feColorMatrix in="SourceAlpha" type="matrix" values="0 0 0 0 0 0 0 0 0 0 0 0 0 0 0 0 0 0 127 0" result="hardAlpha"/>
<feOffset dy="4"/>
<feGaussianBlur stdDeviation="7.5"/>
<feComposite in2="hardAlpha" operator="arithmetic" k2="-1" k3="1"/>
<feColorMatrix type="matrix" values="0 0 0 0 0 0 0 0 0 0 0 0 0 0 0 0 0 0 0.2 0"/>
<feBlend mode="normal" in2="shape" result="effect1_innerShadow_15_6074"/>
</filter>
<clipPath id="clip0_15_6074">
<rect width="34.104" height="34.104" fill="white" transform="translate(0.296021 0.960022)"/>
</clipPath>
</defs>
</svg>
