<svg width="121" height="121" viewBox="0 0 121 121" fill="none" xmlns="http://www.w3.org/2000/svg">
<path d="M80.6668 45.375V40.3334H75.6252V30.25H70.5835V20.1667H65.5418V10.0834H55.4585V20.1667H50.4168V30.25H45.3752V40.3334H40.3335V45.375H10.0835V55.4584H15.1252V60.5H20.1668V65.5417H25.2085V70.5834H30.2502V90.75H25.2085V100.833H20.1668V110.917H35.2918V105.875H45.3752V100.833H50.4168V95.7917H70.5835V100.833H75.6252V105.875H85.7085V110.917H100.833V100.833H95.7918V90.75H90.7502V70.5834H95.7918V65.5417H100.833V60.5H105.875V55.4584H110.917V45.375H80.6668ZM80.6668 60.5V65.5417H75.6252V75.625H80.6668V85.7084H70.5835V80.6667H50.4168V85.7084H40.3335V75.625H45.3752V65.5417H40.3335V60.5H35.2918V55.4584H50.4168V50.4167H55.4585V40.3334H65.5418V50.4167H70.5835V55.4584H85.7085V60.5H80.6668Z" fill="black"/>
</svg>
