<svg width="135" height="78" viewBox="0 0 135 78" fill="none" xmlns="http://www.w3.org/2000/svg">
<rect y="38.5714" width="9.64286" height="9.64286" fill="#A0A0A0"/>
<rect y="48.2143" width="9.64286" height="9.64286" fill="#A0A0A0"/>
<rect x="106.072" y="67.5" width="9.64286" height="9.64286" fill="#A0A0A0"/>
<rect x="106.072" y="57.8571" width="9.64286" height="9.64286" fill="white"/>
<rect x="106.072" y="48.2143" width="9.64286" height="9.64286" fill="white"/>
<rect x="106.072" y="38.5714" width="9.64286" height="9.64286" fill="white"/>
<rect x="115.714" y="38.5714" width="9.64286" height="9.64286" fill="white"/>
<rect x="115.714" y="48.2143" width="9.64286" height="9.64286" fill="white"/>
<rect x="106.072" y="28.9286" width="9.64286" height="9.64286" fill="#A0A0A0"/>
<rect x="96.4285" y="19.2857" width="9.64286" height="9.64286" fill="white"/>
<rect x="86.7856" y="19.2857" width="9.64286" height="9.64286" fill="white"/>
<rect x="77.1428" y="19.2857" width="9.64286" height="9.64286" fill="white"/>
<rect x="67.5" y="19.2857" width="9.64286" height="9.64286" fill="white"/>
<rect x="57.8572" y="19.2857" width="9.64286" height="9.64286" fill="white"/>
<rect x="48.2144" y="19.2857" width="9.64286" height="9.64286" fill="white"/>
<rect x="38.5715" y="19.2857" width="9.64286" height="9.64286" fill="white"/>
<rect x="28.9285" y="19.2857" width="9.64286" height="9.64286" fill="white"/>
<rect x="19.2856" y="19.2857" width="9.64286" height="9.64286" fill="white"/>
<rect x="48.2144" width="9.64286" height="9.64286" fill="#A0A0A0"/>
<rect x="57.8572" width="9.64286" height="9.64286" fill="#A0A0A0"/>
<rect x="67.5" width="9.64286" height="9.64286" fill="#A0A0A0"/>
<rect x="77.1428" width="9.64286" height="9.64286" fill="#A0A0A0"/>
<rect x="86.7856" y="9.64285" width="9.64286" height="9.64286" fill="white"/>
<rect x="77.1428" y="9.64285" width="9.64286" height="9.64286" fill="white"/>
<rect x="67.5" y="9.64285" width="9.64286" height="9.64286" fill="white"/>
<rect x="57.8572" y="9.64285" width="9.64286" height="9.64286" fill="white"/>
<rect x="48.2144" y="9.64285" width="9.64286" height="9.64286" fill="white"/>
<rect x="38.5715" y="9.64285" width="9.64286" height="9.64286" fill="white"/>
<rect x="9.64282" y="28.9286" width="9.64286" height="9.64286" fill="white"/>
<rect x="19.2856" y="28.9286" width="9.64286" height="9.64286" fill="white"/>
<rect x="28.9285" y="28.9286" width="9.64286" height="9.64286" fill="white"/>
<rect x="38.5715" y="28.9286" width="9.64286" height="9.64286" fill="white"/>
<rect x="48.2144" y="28.9286" width="9.64286" height="9.64286" fill="white"/>
<rect x="57.8572" y="28.9286" width="9.64286" height="9.64286" fill="white"/>
<rect x="67.5" y="28.9286" width="9.64286" height="9.64286" fill="white"/>
<rect x="77.1428" y="28.9286" width="9.64286" height="9.64286" fill="white"/>
<rect x="86.7856" y="28.9286" width="9.64286" height="9.64286" fill="white"/>
<rect x="9.64282" y="38.5714" width="9.64286" height="9.64286" fill="white"/>
<rect x="9.64282" y="48.2143" width="9.64286" height="9.64286" fill="white"/>
<rect x="9.64282" y="57.8571" width="9.64286" height="9.64286" fill="white"/>
<rect x="19.2856" y="67.5" width="9.64286" height="9.64286" fill="#A0A0A0"/>
<rect x="28.9285" y="67.5" width="9.64286" height="9.64286" fill="#A0A0A0"/>
<rect x="38.5715" y="67.5" width="9.64286" height="9.64286" fill="#A0A0A0"/>
<rect x="48.2144" y="67.5" width="9.64286" height="9.64286" fill="#A0A0A0"/>
<rect x="57.8572" y="67.5" width="9.64286" height="9.64286" fill="#A0A0A0"/>
<rect x="67.5" y="67.5" width="9.64286" height="9.64286" fill="#A0A0A0"/>
<rect x="77.1428" y="67.5" width="9.64286" height="9.64286" fill="#A0A0A0"/>
<rect x="86.7856" y="67.5" width="9.64286" height="9.64286" fill="#A0A0A0"/>
<rect x="96.4285" y="67.5" width="9.64286" height="9.64286" fill="#A0A0A0"/>
<rect x="96.4285" y="57.8571" width="9.64286" height="9.64286" fill="white"/>
<rect x="96.4285" y="48.2143" width="9.64286" height="9.64286" fill="white"/>
<rect x="96.4285" y="38.5714" width="9.64286" height="9.64286" fill="white"/>
<rect x="96.4285" y="28.9286" width="9.64286" height="9.64286" fill="white"/>
<rect x="86.7856" y="38.5714" width="9.64286" height="9.64286" fill="white"/>
<rect x="77.1428" y="48.2143" width="9.64286" height="9.64286" fill="white"/>
<rect x="86.7856" y="48.2143" width="9.64286" height="9.64286" fill="white"/>
<rect x="67.5" y="48.2143" width="9.64286" height="9.64286" fill="white"/>
<rect x="57.8572" y="48.2143" width="9.64286" height="9.64286" fill="white"/>
<rect x="48.2144" y="48.2143" width="9.64286" height="9.64286" fill="white"/>
<rect x="38.5715" y="48.2143" width="9.64286" height="9.64286" fill="white"/>
<rect x="28.9285" y="48.2143" width="9.64286" height="9.64286" fill="white"/>
<rect x="19.2856" y="57.8571" width="9.64286" height="9.64286" fill="white"/>
<rect x="28.9285" y="57.8571" width="9.64286" height="9.64286" fill="white"/>
<rect x="38.5715" y="57.8571" width="9.64286" height="9.64286" fill="white"/>
<rect x="48.2144" y="57.8571" width="9.64286" height="9.64286" fill="white"/>
<rect x="57.8572" y="57.8571" width="9.64286" height="9.64286" fill="white"/>
<rect x="67.5" y="57.8571" width="9.64286" height="9.64286" fill="white"/>
<rect x="77.1428" y="57.8571" width="9.64286" height="9.64286" fill="white"/>
<rect x="86.7856" y="57.8571" width="9.64286" height="9.64286" fill="white"/>
<rect x="77.1428" y="38.5714" width="9.64286" height="9.64286" fill="white"/>
<rect x="67.5" y="38.5714" width="9.64286" height="9.64286" fill="white"/>
<rect x="48.2144" y="38.5714" width="9.64286" height="9.64286" fill="white"/>
<rect x="38.5715" y="38.5714" width="9.64286" height="9.64286" fill="white"/>
<rect x="57.8572" y="38.5714" width="9.64286" height="9.64286" fill="white"/>
<rect x="28.9285" y="38.5714" width="9.64286" height="9.64286" fill="white"/>
<rect x="19.2856" y="38.5714" width="9.64286" height="9.64286" fill="white"/>
<rect x="19.2856" y="48.2143" width="9.64286" height="9.64286" fill="white"/>
<rect x="57.8572" y="67.5" width="9.64286" height="9.64286" fill="#A0A0A0"/>
<rect x="67.5" y="67.5" width="9.64286" height="9.64286" fill="#A0A0A0"/>
<rect x="77.1428" y="67.5" width="9.64286" height="9.64286" fill="#A0A0A0"/>
<rect x="86.7856" y="67.5" width="9.64286" height="9.64286" fill="#A0A0A0"/>
<rect x="96.4285" y="67.5" width="9.64286" height="9.64286" fill="#A0A0A0"/>
<rect x="106.072" y="67.5" width="9.64286" height="9.64286" fill="#A0A0A0"/>
<rect x="115.714" y="57.8571" width="9.64286" height="9.64286" fill="#A0A0A0"/>
<rect x="125.357" y="48.2143" width="9.64286" height="9.64286" fill="#A0A0A0"/>
<rect x="125.357" y="38.5714" width="9.64286" height="9.64286" fill="#A0A0A0"/>
<rect x="115.714" y="28.9286" width="9.64286" height="9.64286" fill="#A0A0A0"/>
<rect x="96.4285" y="19.2857" width="9.64286" height="9.64286" fill="#A0A0A0"/>
<rect x="106.072" y="28.9286" width="9.64286" height="9.64286" fill="#A0A0A0"/>
<rect x="86.7856" y="9.64285" width="9.64286" height="9.64286" fill="#A0A0A0"/>
<rect x="77.1428" width="9.64286" height="9.64286" fill="#A0A0A0"/>
<rect x="67.5" width="9.64286" height="9.64286" fill="#A0A0A0"/>
<rect x="57.8572" width="9.64286" height="9.64286" fill="#A0A0A0"/>
<rect x="48.2144" width="9.64286" height="9.64286" fill="#A0A0A0"/>
<rect x="38.5715" y="9.64285" width="9.64286" height="9.64286" fill="#A0A0A0"/>
<rect x="28.9285" y="19.2857" width="9.64286" height="9.64286" fill="#A0A0A0"/>
<rect x="19.2856" y="19.2857" width="9.64286" height="9.64286" fill="#A0A0A0"/>
<rect x="9.64282" y="28.9286" width="9.64286" height="9.64286" fill="#A0A0A0"/>
<rect y="38.5714" width="9.64286" height="9.64286" fill="#A0A0A0"/>
<rect y="48.2143" width="9.64286" height="9.64286" fill="#A0A0A0"/>
<rect x="9.64282" y="57.8571" width="9.64286" height="9.64286" fill="#A0A0A0"/>
<rect x="19.2856" y="67.5" width="9.64286" height="9.64286" fill="#A0A0A0"/>
<rect x="28.9285" y="67.5" width="9.64286" height="9.64286" fill="#A0A0A0"/>
<rect x="19.2856" y="57.8571" width="9.64286" height="9.64286" fill="#D2D2D2"/>
<rect x="9.64282" y="48.2143" width="9.64286" height="9.64286" fill="#D2D2D2"/>
<rect x="38.5715" y="28.9286" width="9.64286" height="9.64286" fill="#D2D2D2"/>
<rect x="48.2144" y="38.5714" width="9.64286" height="9.64286" fill="#D2D2D2"/>
<rect x="86.7856" y="38.5714" width="9.64286" height="9.64286" fill="#D2D2D2"/>
<rect x="96.4285" y="28.9286" width="9.64286" height="9.64286" fill="#D2D2D2"/>
<rect x="77.1428" y="48.2143" width="9.64286" height="9.64286" fill="#D2D2D2"/>
<rect x="38.5715" y="67.5" width="9.64286" height="9.64286" fill="#A0A0A0"/>
<rect x="48.2144" y="67.5" width="9.64286" height="9.64286" fill="#A0A0A0"/>
</svg>
