<svg width="237" height="135" viewBox="0 0 237 135" fill="none" xmlns="http://www.w3.org/2000/svg">
<path d="M0 67.5H16.9286V84.375H0V67.5Z" fill="#96A0FF"/>
<path d="M0 84.375H16.9286V101.25H0V84.375Z" fill="#96A0FF"/>
<path d="M186.214 118.125H203.143V135H186.214V118.125Z" fill="#96A0FF"/>
<path d="M186.214 101.25H203.143V118.125H186.214V101.25Z" fill="white"/>
<path d="M186.214 84.375H203.143V101.25H186.214V84.375Z" fill="white"/>
<path d="M186.214 67.5H203.143V84.375H186.214V67.5Z" fill="white"/>
<path d="M203.143 67.5H220.071V84.375H203.143V67.5Z" fill="white"/>
<path d="M203.143 84.375H220.071V101.25H203.143V84.375Z" fill="white"/>
<path d="M186.214 50.625H203.143V67.5H186.214V50.625Z" fill="#96A0FF"/>
<path d="M169.286 33.75H186.214V50.625H169.286V33.75Z" fill="white"/>
<path d="M152.357 33.75H169.286V50.625H152.357V33.75Z" fill="white"/>
<path d="M135.429 33.75H152.357V50.625H135.429V33.75Z" fill="white"/>
<path d="M118.5 33.75H135.429V50.625H118.5V33.75Z" fill="white"/>
<path d="M101.571 33.75H118.5V50.625H101.571V33.75Z" fill="white"/>
<path d="M84.6429 33.75H101.571V50.625H84.6429V33.75Z" fill="white"/>
<path d="M67.7143 33.75H84.6429V50.625H67.7143V33.75Z" fill="white"/>
<path d="M50.7857 33.75H67.7143V50.625H50.7857V33.75Z" fill="white"/>
<path d="M33.8571 33.75H50.7857V50.625H33.8571V33.75Z" fill="white"/>
<path d="M84.6429 0H101.571V16.875H84.6429V0Z" fill="#96A0FF"/>
<path d="M101.571 0H118.5V16.875H101.571V0Z" fill="#96A0FF"/>
<path d="M118.5 0H135.429V16.875H118.5V0Z" fill="#96A0FF"/>
<path d="M135.429 0H152.357V16.875H135.429V0Z" fill="#96A0FF"/>
<path d="M152.357 16.875H169.286V33.75H152.357V16.875Z" fill="white"/>
<path d="M135.429 16.875H152.357V33.75H135.429V16.875Z" fill="white"/>
<path d="M118.5 16.875H135.429V33.75H118.5V16.875Z" fill="white"/>
<path d="M101.571 16.875H118.5V33.75H101.571V16.875Z" fill="white"/>
<path d="M84.6429 16.875H101.571V33.75H84.6429V16.875Z" fill="white"/>
<path d="M67.7143 16.875H84.6429V33.75H67.7143V16.875Z" fill="white"/>
<path d="M16.9286 50.625H33.8571V67.5H16.9286V50.625Z" fill="white"/>
<path d="M33.8571 50.625H50.7857V67.5H33.8571V50.625Z" fill="white"/>
<path d="M50.7857 50.625H67.7143V67.5H50.7857V50.625Z" fill="white"/>
<path d="M67.7143 50.625H84.6429V67.5H67.7143V50.625Z" fill="white"/>
<path d="M84.6429 50.625H101.571V67.5H84.6429V50.625Z" fill="white"/>
<path d="M101.571 50.625H118.5V67.5H101.571V50.625Z" fill="white"/>
<path d="M118.5 50.625H135.429V67.5H118.5V50.625Z" fill="white"/>
<path d="M135.429 50.625H152.357V67.5H135.429V50.625Z" fill="white"/>
<path d="M152.357 50.625H169.286V67.5H152.357V50.625Z" fill="white"/>
<path d="M16.9286 67.5H33.8571V84.375H16.9286V67.5Z" fill="white"/>
<path d="M16.9286 84.375H33.8571V101.25H16.9286V84.375Z" fill="white"/>
<path d="M16.9286 101.25H33.8571V118.125H16.9286V101.25Z" fill="white"/>
<path d="M33.8571 118.125H50.7857V135H33.8571V118.125Z" fill="#96A0FF"/>
<path d="M50.7857 118.125H67.7143V135H50.7857V118.125Z" fill="#96A0FF"/>
<path d="M67.7143 118.125H84.6429V135H67.7143V118.125Z" fill="#96A0FF"/>
<path d="M84.6429 118.125H101.571V135H84.6429V118.125Z" fill="#96A0FF"/>
<path d="M101.571 118.125H118.5V135H101.571V118.125Z" fill="#96A0FF"/>
<path d="M118.5 118.125H135.429V135H118.5V118.125Z" fill="#96A0FF"/>
<path d="M135.429 118.125H152.357V135H135.429V118.125Z" fill="#96A0FF"/>
<path d="M152.357 118.125H169.286V135H152.357V118.125Z" fill="#96A0FF"/>
<path d="M169.286 118.125H186.214V135H169.286V118.125Z" fill="#96A0FF"/>
<path d="M169.286 101.25H186.214V118.125H169.286V101.25Z" fill="white"/>
<path d="M169.286 84.375H186.214V101.25H169.286V84.375Z" fill="white"/>
<path d="M169.286 67.5H186.214V84.375H169.286V67.5Z" fill="white"/>
<path d="M169.286 50.625H186.214V67.5H169.286V50.625Z" fill="white"/>
<path d="M152.357 67.5H169.286V84.375H152.357V67.5Z" fill="white"/>
<path d="M135.429 84.375H152.357V101.25H135.429V84.375Z" fill="white"/>
<path d="M152.357 84.375H169.286V101.25H152.357V84.375Z" fill="white"/>
<path d="M118.5 84.375H135.429V101.25H118.5V84.375Z" fill="white"/>
<path d="M101.571 84.375H118.5V101.25H101.571V84.375Z" fill="white"/>
<path d="M84.6429 84.375H101.571V101.25H84.6429V84.375Z" fill="white"/>
<path d="M67.7143 84.375H84.6429V101.25H67.7143V84.375Z" fill="white"/>
<path d="M50.7857 84.375H67.7143V101.25H50.7857V84.375Z" fill="white"/>
<path d="M33.8571 101.25H50.7857V118.125H33.8571V101.25Z" fill="white"/>
<path d="M50.7857 101.25H67.7143V118.125H50.7857V101.25Z" fill="white"/>
<path d="M67.7143 101.25H84.6429V118.125H67.7143V101.25Z" fill="white"/>
<path d="M84.6429 101.25H101.571V118.125H84.6429V101.25Z" fill="white"/>
<path d="M101.571 101.25H118.5V118.125H101.571V101.25Z" fill="white"/>
<path d="M118.5 101.25H135.429V118.125H118.5V101.25Z" fill="white"/>
<path d="M135.429 101.25H152.357V118.125H135.429V101.25Z" fill="white"/>
<path d="M152.357 101.25H169.286V118.125H152.357V101.25Z" fill="white"/>
<path d="M135.429 67.5H152.357V84.375H135.429V67.5Z" fill="white"/>
<path d="M118.5 67.5H135.429V84.375H118.5V67.5Z" fill="white"/>
<path d="M84.6429 67.5H101.571V84.375H84.6429V67.5Z" fill="white"/>
<path d="M67.7143 67.5H84.6429V84.375H67.7143V67.5Z" fill="white"/>
<path d="M101.571 67.5H118.5V84.375H101.571V67.5Z" fill="white"/>
<path d="M50.7857 67.5H67.7143V84.375H50.7857V67.5Z" fill="white"/>
<path d="M33.8571 67.5H50.7857V84.375H33.8571V67.5Z" fill="white"/>
<path d="M33.8571 84.375H50.7857V101.25H33.8571V84.375Z" fill="white"/>
<path d="M101.571 118.125H118.5V135H101.571V118.125Z" fill="#96A0FF"/>
<path d="M118.5 118.125H135.429V135H118.5V118.125Z" fill="#96A0FF"/>
<path d="M135.429 118.125H152.357V135H135.429V118.125Z" fill="#96A0FF"/>
<path d="M152.357 118.125H169.286V135H152.357V118.125Z" fill="#96A0FF"/>
<path d="M169.286 118.125H186.214V135H169.286V118.125Z" fill="#96A0FF"/>
<path d="M186.214 118.125H203.143V135H186.214V118.125Z" fill="#96A0FF"/>
<path d="M203.143 101.25H220.071V118.125H203.143V101.25Z" fill="#96A0FF"/>
<path d="M220.071 84.375H237V101.25H220.071V84.375Z" fill="#96A0FF"/>
<path d="M220.071 67.5H237V84.375H220.071V67.5Z" fill="#96A0FF"/>
<path d="M203.143 50.625H220.071V67.5H203.143V50.625Z" fill="#96A0FF"/>
<path d="M169.286 33.75H186.214V50.625H169.286V33.75Z" fill="#96A0FF"/>
<path d="M186.214 50.625H203.143V67.5H186.214V50.625Z" fill="#96A0FF"/>
<path d="M152.357 16.875H169.286V33.75H152.357V16.875Z" fill="#96A0FF"/>
<path d="M135.429 0H152.357V16.875H135.429V0Z" fill="#96A0FF"/>
<path d="M118.5 0H135.429V16.875H118.5V0Z" fill="#96A0FF"/>
<path d="M101.571 0H118.5V16.875H101.571V0Z" fill="#96A0FF"/>
<path d="M84.6429 0H101.571V16.875H84.6429V0Z" fill="#96A0FF"/>
<path d="M67.7143 16.875H84.6429V33.75H67.7143V16.875Z" fill="#96A0FF"/>
<path d="M50.7857 33.75H67.7143V50.625H50.7857V33.75Z" fill="#96A0FF"/>
<path d="M33.8571 33.75H50.7857V50.625H33.8571V33.75Z" fill="#96A0FF"/>
<path d="M16.9286 50.625H33.8571V67.5H16.9286V50.625Z" fill="#96A0FF"/>
<path d="M0 67.5H16.9286V84.375H0V67.5Z" fill="#96A0FF"/>
<path d="M0 84.375H16.9286V101.25H0V84.375Z" fill="#96A0FF"/>
<path d="M16.9286 101.25H33.8571V118.125H16.9286V101.25Z" fill="#96A0FF"/>
<path d="M33.8571 118.125H50.7857V135H33.8571V118.125Z" fill="#96A0FF"/>
<path d="M50.7857 118.125H67.7143V135H50.7857V118.125Z" fill="#96A0FF"/>
<path d="M33.8571 101.25H50.7857V118.125H33.8571V101.25Z" fill="#DCC1FF"/>
<path d="M16.9286 84.375H33.8571V101.25H16.9286V84.375Z" fill="#DCC1FF"/>
<path d="M67.7143 50.625H84.6429V67.5H67.7143V50.625Z" fill="#DCC1FF"/>
<path d="M84.6429 67.5H101.571V84.375H84.6429V67.5Z" fill="#DCC1FF"/>
<path d="M152.357 67.5H169.286V84.375H152.357V67.5Z" fill="#DCC1FF"/>
<path d="M169.286 50.625H186.214V67.5H169.286V50.625Z" fill="#DCC1FF"/>
<path d="M135.429 84.375H152.357V101.25H135.429V84.375Z" fill="#DCC1FF"/>
<path d="M67.7143 118.125H84.6429V135H67.7143V118.125Z" fill="#96A0FF"/>
<path d="M84.6429 118.125H101.571V135H84.6429V118.125Z" fill="#96A0FF"/>
</svg>
