<svg width="384" height="153" viewBox="0 0 384 153" fill="none" xmlns="http://www.w3.org/2000/svg">
<g filter="url(#filter0_d_10_237)">
<g filter="url(#filter1_d_10_237)">
<path d="M4 20C4 8.9543 12.9543 0 24 0H346C357.046 0 366 8.95431 366 20V115C366 126.046 357.046 135 346 135H24C12.9543 135 4 126.046 4 115V20Z" fill="#96A0FF"/>
</g>
<g filter="url(#filter2_d_10_237)">
<path d="M138.613 57.7032H128.848V67.4688H138.613V57.7032ZM143.496 67.4688V72.3516H128.848V87H119.082V52.8203H143.496V57.7032H148.379V67.4688H143.496ZM177.676 80.8965V87H153.262V52.8203H163.027V80.8965H177.676ZM202.09 72.3516V57.7032H192.324V72.3516H202.09ZM192.324 77.2344V87H182.559V57.7032H187.441V52.8203H206.973V57.7032H211.855V87H202.09V77.2344H192.324ZM236.27 67.4688V52.8203H246.035V67.4688H241.152V72.3516H236.27V87H226.504V72.3516H221.621V67.4688H216.738V52.8203H226.504V67.4688H236.27Z" fill="#0A0C18"/>
</g>
</g>
<defs>
<filter id="filter0_d_10_237" x="4" y="0" width="380" height="153" filterUnits="userSpaceOnUse" color-interpolation-filters="sRGB">
<feFlood flood-opacity="0" result="BackgroundImageFix"/>
<feColorMatrix in="SourceAlpha" type="matrix" values="0 0 0 0 0 0 0 0 0 0 0 0 0 0 0 0 0 0 127 0" result="hardAlpha"/>
<feOffset dx="15" dy="15"/>
<feGaussianBlur stdDeviation="1.5"/>
<feComposite in2="hardAlpha" operator="out"/>
<feColorMatrix type="matrix" values="0 0 0 0 0.12549 0 0 0 0 0.133333 0 0 0 0 0.176471 0 0 0 0.9 0"/>
<feBlend mode="normal" in2="BackgroundImageFix" result="effect1_dropShadow_10_237"/>
<feBlend mode="normal" in="SourceGraphic" in2="effect1_dropShadow_10_237" result="shape"/>
</filter>
<filter id="filter1_d_10_237" x="0" y="0" width="370" height="143" filterUnits="userSpaceOnUse" color-interpolation-filters="sRGB">
<feFlood flood-opacity="0" result="BackgroundImageFix"/>
<feColorMatrix in="SourceAlpha" type="matrix" values="0 0 0 0 0 0 0 0 0 0 0 0 0 0 0 0 0 0 127 0" result="hardAlpha"/>
<feOffset dy="4"/>
<feGaussianBlur stdDeviation="2"/>
<feComposite in2="hardAlpha" operator="out"/>
<feColorMatrix type="matrix" values="0 0 0 0 0.12549 0 0 0 0 0.133333 0 0 0 0 0.176471 0 0 0 0.5 0"/>
<feBlend mode="normal" in2="BackgroundImageFix" result="effect1_dropShadow_10_237"/>
<feBlend mode="normal" in="SourceGraphic" in2="effect1_dropShadow_10_237" result="shape"/>
</filter>
<filter id="filter2_d_10_237" x="119.082" y="52.8203" width="133.953" height="38.1797" filterUnits="userSpaceOnUse" color-interpolation-filters="sRGB">
<feFlood flood-opacity="0" result="BackgroundImageFix"/>
<feColorMatrix in="SourceAlpha" type="matrix" values="0 0 0 0 0 0 0 0 0 0 0 0 0 0 0 0 0 0 127 0" result="hardAlpha"/>
<feOffset dx="7" dy="4"/>
<feComposite in2="hardAlpha" operator="out"/>
<feColorMatrix type="matrix" values="0 0 0 0 1 0 0 0 0 0.980392 0 0 0 0 0.913725 0 0 0 1 0"/>
<feBlend mode="normal" in2="BackgroundImageFix" result="effect1_dropShadow_10_237"/>
<feBlend mode="normal" in="SourceGraphic" in2="effect1_dropShadow_10_237" result="shape"/>
</filter>
</defs>
</svg>
